<svg width="22" height="24" viewBox="0 0 22 24" fill="none" xmlns="http://www.w3.org/2000/svg">
<g id="dextools 1" clip-path="url(#clip0_47_1142)">
<path id="Vector" fill-rule="evenodd" clip-rule="evenodd" d="M8.31802 1.36967C6.88988 2.11362 5.72146 2.74315 5.7217 2.76876C5.72234 2.83484 9.1493 4.57039 9.27093 4.56615C9.32626 4.5643 9.72764 4.37954 10.1628 4.15562L10.9542 3.74857L11.8186 4.19284L12.6828 4.63719L14.0982 4.00119C16.2309 3.04283 16.4525 2.93781 16.4177 2.90253C16.3717 2.85572 15.6067 2.44477 13.5313 1.35214C12.5283 0.82406 11.5548 0.306295 11.3679 0.201526C11.181 0.096756 11.0026 0.0124757 10.9714 0.0141072C10.9403 0.0157386 9.7462 0.625748 8.31802 1.36967ZM2.05419 4.6133L0.567501 5.38122V8.75149C0.567501 10.6052 0.587023 12.1217 0.610969 12.1217C0.634832 12.1217 1.36628 11.8047 2.23638 11.4171L3.81838 10.7125V7.16004L4.59144 7.58122C5.18716 7.90548 5.78323 8.22908 6.37966 8.55202L7.39478 9.10164L7.84649 8.89738C8.12978 8.76908 8.41251 8.63952 8.69466 8.50872C8.91269 8.40718 9.4479 8.16612 9.88398 7.97292C10.3201 7.77964 10.7237 7.58529 10.781 7.54099C10.857 7.48215 9.92983 6.96977 7.35157 5.64579C5.40811 4.64778 3.75566 3.8344 3.67946 3.8383C3.60325 3.8422 2.87188 4.1909 2.05419 4.6133ZM16.6857 4.82895C15.6731 5.28605 14.844 5.67831 14.8431 5.70068C14.8422 5.72302 15.394 6.05115 16.0695 6.42975C16.7449 6.80843 17.2975 7.1385 17.2975 7.16336C17.2975 7.18816 16.6998 7.47775 15.9694 7.80702C15.2389 8.1362 13.3925 8.97005 11.8662 9.66002L6.75206 11.9717C5.4656 12.5533 4.306 13.0774 4.17518 13.1367C1.54751 14.3262 0.825264 14.6563 0.72608 14.7129C0.626343 14.77 0.603752 15.1014 0.586 16.7647L0.564819 18.7485L1.89428 19.4259L3.22371 20.1032L5.06718 19.2713C6.08111 18.8137 6.91064 18.4154 6.91064 18.386C6.91064 18.3568 6.72328 18.2347 6.49438 18.1146C6.26538 17.9946 5.79266 17.7288 5.44378 17.5239C5.09494 17.319 4.74709 17.131 4.67072 17.1061C4.59437 17.0812 4.53302 17.0377 4.53426 17.0093C4.53553 16.981 5.34731 16.5954 6.3381 16.1524C8.26253 15.292 9.73525 14.6288 12.897 13.199C14.3108 12.5598 15.7248 11.921 17.1389 11.2825C18.3818 10.7215 19.8268 10.0664 20.3502 9.82656L21.3016 9.39059L21.3228 7.38421L21.3441 5.37791L19.9957 4.6858C19.254 4.30518 18.6201 3.99469 18.5868 3.99582C18.5536 3.99688 17.6981 4.37174 16.6857 4.82895ZM20.9404 12.0672C20.7417 12.1643 20.3492 12.346 20.0682 12.471C19.7872 12.596 19.254 12.8366 18.8833 13.0057L18.2093 13.3131L18.194 15.0746C18.1855 16.0433 18.1498 16.8316 18.1147 16.8265C18.0349 16.8147 16.7718 16.1669 15.502 15.4865C14.5856 14.9955 14.528 14.976 14.3127 15.0826C14.1882 15.1443 13.4441 15.478 12.6591 15.8243C11.8741 16.1706 11.2063 16.4765 11.1749 16.5043C11.1436 16.5319 12.7234 17.3882 14.6857 18.4072L18.2535 20.2599L19.7776 19.4715C20.6158 19.0379 21.3285 18.6424 21.3613 18.5927C21.4352 18.4808 21.4289 11.8754 21.3549 11.8843C21.3257 11.8878 21.1391 11.9702 20.9404 12.0672ZM12.5005 19.8203C12.2362 19.934 11.9719 20.0478 11.7077 20.1618C10.9098 20.507 11.0661 20.5184 10.1169 20.0459C9.48462 19.7311 9.21209 19.634 9.0938 19.6812C9.00507 19.7165 8.24143 20.0601 7.39669 20.4446C6.55201 20.8291 5.83159 21.1438 5.79575 21.1438C5.44135 21.1438 6.03054 21.4958 8.30409 22.6426L10.9704 23.9875L12.0923 23.4337C12.7093 23.129 13.9538 22.519 14.858 22.0781C15.762 21.6371 16.4905 21.2648 16.4769 21.2507C16.4632 21.2368 15.7056 20.8478 14.7934 20.3863L13.1349 19.5474L12.5005 19.8203Z" fill="white" fill-opacity="0.8"/>
</g>
<defs>
<clipPath id="clip0_47_1142">
<rect width="20.8704" height="24" fill="white" transform="translate(0.564819)"/>
</clipPath>
</defs>
</svg>
