<svg width="18" height="20" viewBox="0 0 18 20" fill="none" xmlns="http://www.w3.org/2000/svg">
<g id="dextools 1" clip-path="url(#clip0_421_431)">
<path id="Vector" fill-rule="evenodd" clip-rule="evenodd" d="M6.7652 1.14137C5.57508 1.76133 4.6014 2.28594 4.6016 2.30728C4.60213 2.36235 7.45793 3.80864 7.55929 3.80511C7.6054 3.80357 7.93989 3.6496 8.30255 3.463L8.96205 3.12379L9.68231 3.49401L10.4025 3.86431L11.582 3.33431C13.3593 2.53568 13.5439 2.44816 13.515 2.41876C13.4766 2.37975 12.8391 2.03729 11.1096 1.12677C10.2737 0.686699 9.46249 0.255228 9.30674 0.16792C9.15102 0.0806122 9.00235 0.0103787 8.97638 0.0117382C8.95042 0.0130977 7.95535 0.521439 6.7652 1.14137ZM1.54534 3.8444L0.306434 4.48433V7.29289C0.306434 8.83762 0.322702 10.1014 0.342657 10.1014C0.362543 10.1014 0.972086 9.8372 1.69716 9.51426L3.0155 8.92709V5.96668L3.65972 6.31767C4.15615 6.58788 4.65287 6.85755 5.1499 7.12667L5.99584 7.58468L6.37226 7.41447C6.60834 7.30755 6.84394 7.19958 7.07906 7.09058C7.26075 7.00597 7.70677 6.80508 8.07017 6.64409C8.43357 6.48302 8.76997 6.32105 8.81767 6.28414C8.88103 6.2351 8.10837 5.80813 5.95982 4.70481C4.34028 3.87313 2.96324 3.19531 2.89973 3.19856C2.83623 3.20181 2.22675 3.4924 1.54534 3.8444ZM13.7382 4.02411C12.8945 4.40502 12.2035 4.7319 12.2027 4.75055C12.202 4.76916 12.6619 5.04261 13.2248 5.35811C13.7876 5.67367 14.2481 5.94873 14.2481 5.96945C14.2481 5.99012 13.7501 6.23144 13.1414 6.50583C12.5326 6.78015 10.994 7.47502 9.72204 8.05L5.46024 9.9764C4.38818 10.461 3.42185 10.8978 3.31284 10.9472C1.12311 11.9385 0.521237 12.2136 0.438583 12.2608C0.355469 12.3083 0.336643 12.5845 0.32185 13.9705L0.304199 15.6237L1.41208 16.1882L2.51994 16.7527L4.05616 16.0594C4.90111 15.6781 5.59239 15.3461 5.59239 15.3217C5.59239 15.2973 5.43625 15.1956 5.2455 15.0955C5.05467 14.9955 4.66073 14.774 4.37 14.6032C4.0793 14.4325 3.78942 14.2758 3.72578 14.255C3.66216 14.2343 3.61103 14.1981 3.61207 14.1744C3.61313 14.1508 4.28961 13.8295 5.11527 13.4603C6.71896 12.7433 7.94622 12.1907 10.581 10.9992C11.7592 10.4665 12.9375 9.93412 14.116 9.40209C15.1517 8.9346 16.3559 8.38861 16.792 8.18879L17.5849 7.82548L17.6025 6.15349L17.6202 4.48157L16.4966 3.90482C15.8785 3.58764 15.3502 3.32889 15.3225 3.32984C15.2949 3.33071 14.5819 3.6431 13.7382 4.02411ZM17.2838 10.056C17.1182 10.1369 16.7912 10.2883 16.557 10.3925C16.3229 10.4967 15.8785 10.6971 15.5696 10.8381L15.008 11.0943L14.9952 12.5621C14.9881 13.3694 14.9584 14.0264 14.9291 14.0221C14.8626 14.0122 13.81 13.4724 12.7519 12.9054C11.9882 12.4962 11.9402 12.4799 11.7607 12.5688C11.657 12.6202 11.0369 12.8983 10.3828 13.1869C9.72863 13.4755 9.17211 13.7304 9.14593 13.7535C9.11982 13.7766 10.4364 14.4901 12.0716 15.3393L15.0448 16.8832L16.3149 16.2262C17.0133 15.8649 17.6073 15.5353 17.6346 15.4939C17.6962 15.4007 17.6909 9.89614 17.6293 9.90359C17.6049 9.90651 17.4494 9.97511 17.2838 10.056ZM10.2506 16.5169C10.0303 16.6116 9.81008 16.7065 9.58989 16.8015C8.92498 17.0891 9.05528 17.0987 8.26423 16.7049C7.73737 16.4426 7.51026 16.3617 7.41168 16.401C7.33774 16.4304 6.70138 16.7167 5.99743 17.0372C5.29352 17.3576 4.69317 17.6198 4.66331 17.6198C4.36798 17.6198 4.85897 17.9131 6.75359 18.8689L8.97553 19.9896L9.91041 19.528C10.4246 19.2742 11.4617 18.7658 12.2151 18.3984C12.9685 18.0309 13.5756 17.7206 13.5643 17.7089C13.5528 17.6973 12.9215 17.3731 12.1614 16.9886L10.7792 16.2895L10.2506 16.5169Z" fill="white"/>
</g>
<defs>
<clipPath id="clip0_421_431">
<rect width="17.392" height="20" fill="white" transform="translate(0.304199)"/>
</clipPath>
</defs>
</svg>
