<svg width="20" height="20" viewBox="0 0 20 20" fill="none" xmlns="http://www.w3.org/2000/svg">
<g id="ic:baseline-discord">
<path id="Vector" d="M16.0583 4.44168C14.9499 3.92502 13.7499 3.55002 12.4999 3.33335C12.489 3.333 12.4781 3.33506 12.468 3.33938C12.4579 3.3437 12.4489 3.35017 12.4416 3.35835C12.2916 3.63335 12.1166 3.99168 11.9999 4.26668C10.6741 4.06668 9.32577 4.06668 7.99994 4.26668C7.88327 3.98335 7.70827 3.63335 7.54994 3.35835C7.5416 3.34168 7.5166 3.33335 7.4916 3.33335C6.2416 3.55002 5.04993 3.92502 3.93327 4.44168C3.92493 4.44168 3.9166 4.45002 3.90827 4.45835C1.6416 7.85002 1.0166 11.15 1.32493 14.4167C1.32493 14.4334 1.33327 14.45 1.34993 14.4584C2.84993 15.5584 4.2916 16.225 5.7166 16.6667C5.7416 16.675 5.7666 16.6667 5.77493 16.65C6.10827 16.1917 6.40827 15.7084 6.6666 15.2C6.68327 15.1667 6.6666 15.1334 6.63327 15.125C6.15827 14.9417 5.70827 14.725 5.2666 14.475C5.23327 14.4584 5.23327 14.4084 5.25827 14.3834C5.34994 14.3167 5.4416 14.2417 5.53327 14.175C5.54993 14.1584 5.57493 14.1584 5.5916 14.1667C8.45827 15.475 11.5499 15.475 14.3833 14.1667C14.3999 14.1584 14.4249 14.1584 14.4416 14.175C14.5333 14.25 14.6249 14.3167 14.7166 14.3917C14.7499 14.4167 14.7499 14.4667 14.7083 14.4833C14.2749 14.7417 13.8166 14.95 13.3416 15.1334C13.3083 15.1417 13.2999 15.1834 13.3083 15.2084C13.5749 15.7167 13.8749 16.2 14.1999 16.6584C14.2249 16.6667 14.2499 16.675 14.2749 16.6667C15.7083 16.225 17.1499 15.5584 18.6499 14.4584C18.6666 14.45 18.6749 14.4334 18.6749 14.4167C19.0416 10.6417 18.0666 7.36668 16.0916 4.45835C16.0833 4.45002 16.0749 4.44168 16.0583 4.44168ZM7.09994 12.425C6.2416 12.425 5.52493 11.6334 5.52493 10.6584C5.52493 9.68335 6.22494 8.89168 7.09994 8.89168C7.98327 8.89168 8.68327 9.69168 8.67493 10.6584C8.67493 11.6334 7.97494 12.425 7.09994 12.425ZM12.9083 12.425C12.0499 12.425 11.3333 11.6334 11.3333 10.6584C11.3333 9.68335 12.0333 8.89168 12.9083 8.89168C13.7916 8.89168 14.4916 9.69168 14.4833 10.6584C14.4833 11.6334 13.7916 12.425 12.9083 12.425Z" fill="white"/>
</g>
</svg>
