<svg width="20" height="20" viewBox="0 0 20 20" fill="none" xmlns="http://www.w3.org/2000/svg">
<g id="gitbook-svgrepo-com 1">
<path id="Vector" d="M9.00183 14.8083C9.07877 14.8085 9.15492 14.8237 9.22596 14.8533C9.29699 14.8828 9.36151 14.926 9.41584 14.9805C9.47016 15.035 9.51322 15.0996 9.54256 15.1708C9.5719 15.2419 9.58694 15.3181 9.58683 15.395C9.58672 15.4719 9.57146 15.5481 9.54192 15.6191C9.51238 15.6902 9.46914 15.7547 9.41466 15.809C9.36018 15.8633 9.29554 15.9064 9.22442 15.9357C9.1533 15.9651 9.0771 15.9801 9.00017 15.98C8.84479 15.9798 8.69587 15.9179 8.58616 15.8078C8.47646 15.6978 8.41495 15.5487 8.41517 15.3933C8.41539 15.238 8.47732 15.0891 8.58734 14.9793C8.69736 14.8696 8.84646 14.8081 9.00183 14.8083ZM18.1885 11.1858C18.1116 11.1858 18.0354 11.1706 17.9643 11.1411C17.8933 11.1116 17.8287 11.0684 17.7744 11.014C17.72 10.9595 17.6769 10.8949 17.6475 10.8238C17.6181 10.7527 17.603 10.6765 17.6031 10.5996C17.6031 10.5227 17.6183 10.4465 17.6478 10.3754C17.6773 10.3044 17.7205 10.2398 17.775 10.1855C17.8294 10.1311 17.894 10.088 17.9651 10.0586C18.0362 10.0292 18.1124 10.0141 18.1893 10.0142C18.3447 10.0143 18.4937 10.0761 18.6035 10.1861C18.7132 10.296 18.7749 10.4451 18.7747 10.6004C18.7746 10.7558 18.7128 10.9048 18.6029 11.0146C18.4929 11.1243 18.3439 11.186 18.1885 11.1858ZM18.1885 8.78918C17.7082 8.78962 17.2476 8.98063 16.9079 9.32029C16.5683 9.65995 16.3773 10.1205 16.3768 10.6008C16.3768 10.795 16.4093 10.9883 16.4727 11.1767L10.4885 14.3625C10.3226 14.1216 10.1005 13.9246 9.84155 13.7886C9.58256 13.6526 9.29437 13.5815 9.00183 13.5817C8.311 13.5817 7.68183 13.9775 7.37683 14.595L2.001 11.76C1.43267 11.4617 1.00767 10.5267 1.05267 9.67501C1.076 9.23085 1.22933 8.88585 1.4635 8.75251C1.61183 8.66918 1.79017 8.67585 1.98017 8.77501L2.01517 8.79418C3.44017 9.54418 8.10183 12 8.2985 12.0908C8.601 12.2317 8.76933 12.2883 9.286 12.0433L18.9227 7.03168C19.0643 6.97835 19.2293 6.84251 19.2293 6.63668C19.2293 6.35168 18.9343 6.23918 18.9335 6.23918C18.3852 5.97668 17.5427 5.58251 16.721 5.19751C14.9643 4.37501 12.9735 3.44335 12.0993 2.98501C11.3443 2.59001 10.7368 2.92335 10.6285 2.99001L10.4185 3.09418C6.4835 5.04001 1.21683 7.64835 0.916834 7.83085C0.381001 8.15751 0.0485011 8.80835 0.00516779 9.61585C-0.0614989 10.8967 0.591001 12.2325 1.52517 12.7217L7.21017 15.6533C7.27279 16.084 7.48827 16.4777 7.81722 16.7626C8.14618 17.0475 8.56666 17.2045 9.00183 17.205C9.47711 17.2042 9.93309 17.0169 10.2717 16.6834C10.6104 16.3499 10.8046 15.8969 10.8127 15.4217L17.0743 12.0275C17.391 12.2758 17.7852 12.4117 18.1885 12.4117C18.6688 12.4112 19.1294 12.2202 19.4691 11.8806C19.8087 11.5409 19.9997 11.0804 20.0002 10.6C19.9997 10.1197 19.8087 9.65912 19.4691 9.31946C19.1294 8.9798 18.6688 8.78879 18.1885 8.78835" fill="white"/>
</g>
</svg>
