<svg width="20" height="20" viewBox="0 0 20 20" fill="none" xmlns="http://www.w3.org/2000/svg">
<g id="Social Icons" clip-path="url(#clip0_421_417)">
<path id="Vector" d="M19.6018 5.15459C19.4888 4.7291 19.2659 4.34077 18.9556 4.02847C18.6453 3.71617 18.2584 3.49084 17.8337 3.37504C16.27 2.95459 10.02 2.95459 10.02 2.95459C10.02 2.95459 3.77002 2.95459 2.20638 3.37504C1.78163 3.49084 1.39474 3.71617 1.08443 4.02847C0.774116 4.34077 0.551274 4.7291 0.438201 5.15459C0.0200196 6.72504 0.0200195 10 0.0200195 10C0.0200195 10 0.0200196 13.275 0.438201 14.8455C0.551274 15.271 0.774116 15.6593 1.08443 15.9716C1.39474 16.2839 1.78163 16.5092 2.20638 16.625C3.77002 17.0455 10.02 17.0455 10.02 17.0455C10.02 17.0455 16.27 17.0455 17.8337 16.625C18.2584 16.5092 18.6453 16.2839 18.9556 15.9716C19.2659 15.6593 19.4888 15.271 19.6018 14.8455C20.02 13.275 20.02 10 20.02 10C20.02 10 20.02 6.72504 19.6018 5.15459Z" fill="white"/>
<path id="Vector_2" d="M7.97461 12.9739V7.02612L13.2019 9.99999L7.97461 12.9739Z" fill="black"/>
</g>
<defs>
<clipPath id="clip0_421_417">
<rect width="20" height="20" fill="white"/>
</clipPath>
</defs>
</svg>
